<svg width="980" height="320" viewBox="0 0 980 320" fill="none" xmlns="http://www.w3.org/2000/svg">
  <defs>
    <linearGradient id="goldFill" x1="109" y1="26" x2="807" y2="263" gradientUnits="userSpaceOnUse">
      <stop stop-color="#FFF0B7"/>
      <stop offset="0.42" stop-color="#D6A74D"/>
      <stop offset="1" stop-color="#845619"/>
    </linearGradient>
    <linearGradient id="goldDark" x1="146" y1="64" x2="203" y2="220" gradientUnits="userSpaceOnUse">
      <stop stop-color="#D39D3F"/>
      <stop offset="1" stop-color="#6F4515"/>
    </linearGradient>
    <linearGradient id="crown" x1="176" y1="14" x2="176" y2="108" gradientUnits="userSpaceOnUse">
      <stop stop-color="#A11C32"/>
      <stop offset="1" stop-color="#4B0816"/>
    </linearGradient>
    <filter id="shadow" x="0" y="0" width="980" height="320" filterUnits="userSpaceOnUse" color-interpolation-filters="sRGB">
      <feDropShadow dx="0" dy="10" stdDeviation="14" flood-color="#000000" flood-opacity="0.32"/>
    </filter>
  </defs>
  <g filter="url(#shadow)">
    <g transform="translate(20 18)">
      <path d="M178 16L196 44H160L178 16Z" fill="url(#goldFill)"/>
      <path d="M126 52L144 22L162 48L178 14L194 48L212 22L230 52L206 52L196 86H160L150 52H126Z" fill="url(#crown)" stroke="url(#goldFill)" stroke-width="6" stroke-linejoin="round"/>
      <circle cx="152" cy="54" r="5" fill="#E9D4A1"/>
      <circle cx="178" cy="40" r="5" fill="#E9D4A1"/>
      <circle cx="204" cy="54" r="5" fill="#E9D4A1"/>

      <path d="M178 110C220 110 258 142 266 196C272 236 244 282 178 300C112 282 84 236 90 196C98 142 136 110 178 110Z" fill="url(#goldFill)"/>
      <path d="M130 144C116 142 104 143 90 149C100 157 108 164 116 174C108 177 100 184 94 192C112 188 124 188 140 194" fill="url(#goldDark)"/>
      <path d="M226 144C240 142 252 143 266 149C256 157 248 164 240 174C248 177 256 184 262 192C244 188 232 188 216 194" fill="url(#goldDark)"/>
      <path d="M148 206C160 192 170 186 178 186C186 186 196 192 208 206C196 214 188 217 178 220C168 217 160 214 148 206Z" fill="#080707"/>
      <circle cx="160" cy="188" r="5" fill="#4A0B16"/>
      <circle cx="196" cy="188" r="5" fill="#4A0B16"/>
      <path d="M172 218L178 240L184 218H172Z" fill="#4A0B16"/>

      <path d="M74 160C34 126 12 110 0 104C18 130 32 150 46 178C30 188 22 196 10 212C42 204 62 202 96 206" fill="url(#goldFill)"/>
      <path d="M282 160C322 126 344 110 356 104C338 130 324 150 310 178C326 188 334 196 346 212C314 204 294 202 260 206" fill="url(#goldFill)"/>
      <path d="M100 154L20 116" stroke="#8A5B1D" stroke-width="6" stroke-linecap="round"/>
      <path d="M102 182L14 174" stroke="#8A5B1D" stroke-width="6" stroke-linecap="round"/>
      <path d="M256 154L336 116" stroke="#8A5B1D" stroke-width="6" stroke-linecap="round"/>
      <path d="M254 182L342 174" stroke="#8A5B1D" stroke-width="6" stroke-linecap="round"/>
    </g>

    <g fill="url(#goldFill)">
      <text x="490" y="230" text-anchor="middle" font-family="Georgia, serif" font-size="74" font-weight="700" letter-spacing="1.8">BLACK HAWK VENTURES</text>
      <text x="490" y="268" text-anchor="middle" font-family="Georgia, serif" font-size="28" font-style="italic">What Lasts. Leads.</text>
    </g>

    <path d="M262 260H390" stroke="url(#goldFill)" stroke-width="3" stroke-linecap="round"/>
    <path d="M590 260H718" stroke="url(#goldFill)" stroke-width="3" stroke-linecap="round"/>
  </g>
</svg>
