<svg width="640" height="640" viewBox="0 0 640 640" fill="none" xmlns="http://www.w3.org/2000/svg">
  <defs>
    <linearGradient id="goldFill" x1="90" y1="118" x2="542" y2="420" gradientUnits="userSpaceOnUse">
      <stop stop-color="#FFF0B7"/>
      <stop offset="0.42" stop-color="#D6A74D"/>
      <stop offset="1" stop-color="#845619"/>
    </linearGradient>
    <linearGradient id="goldDark" x1="320" y1="148" x2="320" y2="362" gradientUnits="userSpaceOnUse">
      <stop stop-color="#D39D3F"/>
      <stop offset="1" stop-color="#6F4515"/>
    </linearGradient>
    <linearGradient id="crown" x1="320" y1="72" x2="320" y2="154" gradientUnits="userSpaceOnUse">
      <stop stop-color="#A11C32"/>
      <stop offset="1" stop-color="#4B0816"/>
    </linearGradient>
    <filter id="shadow" x="40" y="30" width="560" height="560" filterUnits="userSpaceOnUse" color-interpolation-filters="sRGB">
      <feDropShadow dx="0" dy="12" stdDeviation="18" flood-color="#000000" flood-opacity="0.32"/>
    </filter>
  </defs>
  <g filter="url(#shadow)">
    <g transform="translate(76 66)">
      <path d="M244 6L260 30H228L244 6Z" fill="url(#goldFill)"/>
      <path d="M192 52L210 24L228 48L244 12L260 48L278 24L296 52L270 52L260 88H228L218 52H192Z" fill="url(#crown)" stroke="url(#goldFill)" stroke-width="6" stroke-linejoin="round"/>
      <circle cx="218" cy="54" r="4.5" fill="#E9D4A1"/>
      <circle cx="244" cy="40" r="4.5" fill="#E9D4A1"/>
      <circle cx="270" cy="54" r="4.5" fill="#E9D4A1"/>

      <path d="M244 114C286 114 326 146 334 200C340 238 314 286 244 304C174 286 148 238 154 200C162 146 202 114 244 114Z" fill="url(#goldFill)"/>
      <path d="M200 148C186 146 174 147 160 153C170 161 178 168 186 178C178 181 170 188 164 196C182 192 194 192 208 198" fill="url(#goldDark)"/>
      <path d="M288 148C302 146 314 147 328 153C318 161 310 168 302 178C310 181 318 188 324 196C306 192 294 192 280 198" fill="url(#goldDark)"/>
      <path d="M214 210C226 196 236 190 244 190C252 190 262 196 274 210C262 218 254 221 244 224C234 221 226 218 214 210Z" fill="#080707"/>
      <circle cx="226" cy="192" r="5" fill="#4A0B16"/>
      <circle cx="262" cy="192" r="5" fill="#4A0B16"/>
      <path d="M238 222L244 244L250 222H238Z" fill="#4A0B16"/>

      <path d="M136 164C88 124 56 108 36 98C54 124 70 146 88 180C68 190 56 198 44 214C80 206 104 204 142 210" fill="url(#goldFill)"/>
      <path d="M352 164C400 124 432 108 452 98C434 124 418 146 400 180C420 190 432 198 444 214C408 206 384 204 346 210" fill="url(#goldFill)"/>
      <path d="M146 158L44 110" stroke="#8A5B1D" stroke-width="6" stroke-linecap="round"/>
      <path d="M150 188L36 178" stroke="#8A5B1D" stroke-width="6" stroke-linecap="round"/>
      <path d="M342 158L444 110" stroke="#8A5B1D" stroke-width="6" stroke-linecap="round"/>
      <path d="M338 188L452 178" stroke="#8A5B1D" stroke-width="6" stroke-linecap="round"/>
    </g>
    <g fill="url(#goldFill)">
      <text x="320" y="438" text-anchor="middle" font-family="Georgia, serif" font-size="46" font-weight="700" letter-spacing="1.4">BLACK HAWK VENTURES</text>
      <text x="320" y="472" text-anchor="middle" font-family="Georgia, serif" font-size="20" font-style="italic">What Lasts. Leads.</text>
    </g>
    <path d="M134 460H228" stroke="url(#goldFill)" stroke-width="2.5" stroke-linecap="round"/>
    <path d="M412 460H506" stroke="url(#goldFill)" stroke-width="2.5" stroke-linecap="round"/>
  </g>
</svg>
